<svg preserveAspectRatio="xMidYMid meet" data-bbox="17.898 77.164 165.102 45.376" viewBox="17.898000717163086 77.16398620605469 165.1020050048828 45.37602233886719" height="200" width="200" xmlns="http://www.w3.org/2000/svg" data-type="color" role="img" style="">
    <g>
        <path fill="#86e3ce" d="M63.274 91.659H48.779V77.164H32.393v14.495H17.898v16.386h14.495v14.495h16.386v-14.495h14.495V91.659z" data-color="1"></path>
        <path fill="#fb897b" d="M183 89.602l-11.587-11.586-10.249 10.249-10.25-10.249-11.586 11.586 10.25 10.25-10.25 10.249 11.586 11.587 10.25-10.25 10.249 10.25L183 110.101l-10.25-10.249L183 89.602z" data-color="2"></path>
        <path fill="#ffe08d" d="M123.569 99.852c0 12.53-10.158 22.688-22.688 22.688s-22.688-10.158-22.688-22.688 10.158-22.688 22.688-22.688 22.688 10.158 22.688 22.688z" data-color="3"></path>
    </g>
</svg>